<?xml version="1.0" encoding="UTF-8"?><svg id="a" xmlns="http://www.w3.org/2000/svg" viewBox="0 0 389.6943 380.56945"><defs><style>.e{fill:#7cc6fe;}.e,.f{stroke:#000;stroke-miterlimit:10;stroke-width:10px;}.f{fill:#fed86f;}</style></defs><g id="b"><path id="c" class="e" d="M101.89441,327.97733l138.83534,.3602c40.54147,.10518,73.49617-34.2451,73.60638-76.7235l.13926-53.67533c.11021-42.47841-32.66581-76.99922-73.20728-77.10441l-162.51847-.42165c-40.54147-.10518-73.49617,34.2451-73.60638,76.7235l-.14299,55.11204c-.07968,30.71108,17.35753,57.18355,42.45357,69.03453l-14.21452,44.44259c-2.22441,6.95475,5.47694,12.73085,11.04379,8.28298l57.61129-46.03096Z"/></g><g id="d"><path class="f" d="M136.07057,270.57829l-27.32979,14.44161c-6.4579,3.28853-14.38979,.87212-17.70308-5.39316l-31.49897-59.56302c-3.30241-6.2447-.76719-13.9537,5.66784-17.23455l25.695-13.62817,45.16901,81.37728Z"/><path class="f" d="M370.55406,241.20004c7.24213,2.82884,14.9958-2.94822,14.06374-10.50638-1.88142-15.25675-4.43055-27.70957-6.54239-36.68462-6.66618-28.33046-29.24938-108.17236-100.50672-174.33863-4.99872-4.64157-9.73845-8.75295-14.01739-12.30243-6.00694-4.98289-15.3191-1.67381-16.72576,5.93219-2.48977,13.46256-7.03315,29.68255-15.46157,46.84653-16.00608,32.59547-38.04513,52.34837-62.93782,74.65889-14.25059,12.77234-34.84864,29.49118-62.12319,46.26113,15.22763,27.15054,30.45527,54.3011,45.68291,81.45164,30.28865-14.61345,57.02656-22.30176,76.12417-26.58541,27.03117-6.06316,59.5779-13.04083,100.19713-6.34165,16.61083,2.73957,30.83017,7.14926,42.24689,11.60874Z"/></g></svg>