<?xml version="1.0" encoding="UTF-8"?><svg id="a" xmlns="http://www.w3.org/2000/svg" viewBox="0 0 350.58033 286.5806"><defs><style>.c{fill:#7cc6fe;}.c,.d{stroke:#000;stroke-miterlimit:10;stroke-width:10px;}.d{fill:#fed86f;}</style></defs><path id="b" class="c" d="M90.74971,239.46247l122.86664,.31877c35.87843,.09309,65.04272-30.30626,65.14025-67.89884l.12324-47.50165c.09753-37.59258-28.90862-68.14285-64.78705-68.23594l-143.82576-.37315c-35.87843-.09309-65.04272,30.30626-65.14025,67.89884l-.12654,48.77311c-.07051,27.17873,15.36109,50.60636,37.5706,61.09425l-12.57958,39.33085c-1.96856,6.15482,4.84699,11.26656,9.77355,7.33028l50.9849-40.73653Z"/><path class="d" d="M166.51094,186.55978l-21.17328,7.37892c-4.98898,1.65293-10.37899-1.03925-12.02989-6.00865l-15.69485-47.24329c-1.64548-4.95308,1.04648-10.29691,6.01824-11.94688l19.91251-6.97441,22.96726,64.79431Z"/><path class="d" d="M334.68419,189.59274c4.63417,2.89085,10.55506-.40202,10.74245-5.99289,.37826-11.28558-.00464-20.61444-.46802-27.36978-1.4627-21.32378-8.17572-81.85883-49.59628-138.11028-2.90566-3.94604-5.69235-7.47749-8.22578-10.54793-3.55653-4.31041-10.27213-2.98838-12.06078,2.36634-3.16589,9.47778-8.03369,20.71806-15.65568,32.1932-14.47462,21.79199-31.66722,33.56892-51.08593,46.87074-11.11684,7.61504-26.99547,17.35785-47.43604,26.36453,7.43399,21.45934,14.868,42.9187,22.30199,64.37805,22.26257-7.09322,41.34746-9.57396,54.84728-10.4697,19.10796-1.26784,42.07963-2.56033,69.07026,7.00368,11.03755,3.9111,20.26107,8.75681,27.56652,13.31404Z"/></svg>