<?xml version="1.0" encoding="UTF-8"?><svg id="Layer_1" xmlns="http://www.w3.org/2000/svg" viewBox="0 0 400 400"><defs><style>.cls-1{fill:#7cc6fe;}.cls-1,.cls-2{stroke:#000;stroke-miterlimit:10;stroke-width:10px;}.cls-2{fill:#fed86f;}</style></defs><path id="Speech_Bubble" class="cls-1" d="M118.89,295.31l122.87,.32c35.88,.09,65.04-30.31,65.14-67.9l.12-47.5c.1-37.59-28.91-68.14-64.79-68.24l-143.83-.37c-35.88-.09-65.04,30.31-65.14,67.9l-.13,48.77c-.07,27.18,15.36,50.61,37.57,61.09l-12.58,39.33c-1.97,6.15,4.85,11.27,9.77,7.33l50.98-40.74Z"/><path class="cls-2" d="M194.65,242.4l-21.17,7.38c-4.99,1.65-10.38-1.04-12.03-6.01l-15.69-47.24c-1.65-4.95,1.05-10.3,6.02-11.95l19.91-6.97,22.97,64.79Z"/><path class="cls-2" d="M362.82,245.44c4.63,2.89,10.56-.4,10.74-5.99,.38-11.29,0-20.61-.47-27.37-1.46-21.32-8.18-81.86-49.6-138.11-2.91-3.95-5.69-7.48-8.23-10.55-3.56-4.31-10.27-2.99-12.06,2.37-3.17,9.48-8.03,20.72-15.66,32.19-14.47,21.79-31.67,33.57-51.09,46.87-11.12,7.62-27,17.36-47.44,26.36,7.43,21.46,14.87,42.92,22.3,64.38,22.26-7.09,41.35-9.57,54.85-10.47,19.11-1.27,42.08-2.56,69.07,7,11.04,3.91,20.26,8.76,27.57,13.31Z"/></svg>